<?xml version="1.0" encoding="UTF-8"?><svg id="b" xmlns="http://www.w3.org/2000/svg" viewBox="0 0 3415.56 3345.84"><g id="c"><g><path d="m1768.6,0c673.43,0,1434.62,420.37,1446.53,1677.92,7.31,789.28-765.16,1541.87-1507.75,1558.69-757.63,16.82-1485.81-717.94-1506.28-1501.11C176.02,768.9,825.84,0,1768.6,0h0Z" fill="#f2f2f2" fill-rule="evenodd"/><path d="m1765.95,2063.62c644.18,0,1372.3,164.89,1383.7,658.17,7,309.6-731.92,604.81-1442.26,611.4-724.73,6.6-1421.27-281.62-1440.86-588.82-23.98-379.15,597.61-680.76,1499.42-680.76h0Z" fill="#d8d8d8" fill-rule="evenodd"/></g><g><path d="m2522.37,1760.11c-20.23,65.08-364.63,90.74-412.39-7.92-21.79-44.98,426.36-37.02,412.39,7.92h0Z" fill="#5b5b5b" fill-rule="evenodd"/><path d="m1976.08,1281.81c36.76,59.9,94.27,120.89,134.81,181.79,21.79,32.67,47.42,97.57,47.72,97.79,4.05-55.59,15.44-99.14,15.44-172.05,0-3.26,10.79-60.47,10.09-112.71-.57-40.93-14.66-81.13-4.35-72.69,18.75,15.36,5,133.9,5,177.22,0,108.67-16.18,94.4-13.4,223.29.65,29.8,41.63,72.26,55.86,112.32,8.4,23.53,74.21,74.65,81.87,120.98,3.26,19.75-4.52,3.48-52.59,17.14-.48.13-44.81-84.96-50.24-92.44-28.58-39.46-55.33-78.56-56.64-127.5-.65-24.06-28.19-159.52-49.37-172.83-15.44-9.7-94.66-25.14-105.1-28.1,24.19-8.4,63.6,5.92,101.66,18.1-10.27-8.83-116.63-144.47-117.54-165.44-.09-2.57-1.44-2-3.22-4.87h0Z" fill="#737373" fill-rule="evenodd"/><path d="m2036.94,1640.35c1-8.05,129.63-37.41,203.06,1,30.02,15.7,56.77,23.1,77.65,53.72-5.39-8.53,2.87-46.94-19.45-79.48-14.79-21.58-8.61-57.29,9.79-16.18,7.35,16.4,17.31,86.18,24.62,110.62,4.79,16.14,8.66,9.57,39.72,56.68,7.87-21.19,17.18-62.69,38.89-102.45,19.27-35.28,71.86-112.23,78.52-170.31.74-6.26,8.66-97.31,9.22-97.36,35.28-3.87,4.13-14.66,4.22,66.82.09,72.86-55.07,155.82-82.52,212.07-10.35,21.19-15.79,43.89-14.27,53.12,9.4.65,69.04-37.02,109.23-69.56,18.14-14.66,28.97-31.02,35.28-37.59,20.49-21.19,31.32-41.37,12.14-1.31-22.32,46.63-99.4,84.74-138.86,115.93-28.36,22.4-23.75,29.19-28.67,89.31-1.44,17.23-26.93,7.48-27.1,7.4-4.83-69.08-50.07-109.58-93.75-157.74-37.45-41.28-147.21-63.08-237.73-34.71h0Z" fill="#5e5e5e" fill-rule="evenodd"/><path d="m2109.98,1752.19c14.75,33.45,31.28,86.7,31.19,101.36-.13,23.06,18.44,228.64,25.62,307.21h299.03c8.87-123.07,17.23-234.82,25.01-307.03.17-.3,14.96-37.06,32.76-96.18-42.67,17.66-115.37,52.68-200.32,54.77-98.7,2.48-200.19-46.42-213.29-60.12h0Z" fill="#919191" fill-rule="evenodd"/><path d="m2101.06,1645.87c-5.83-35.58-4.18-44.94-52.03-38.5-63.38,8.61-113.76,59.6-133.51,97.75-13.96,27.01-29.58,87.35-.91,134.46,5.35-.3,3.35-14.79,14.7-32.97,24.62-39.28,24.45,1.78,24.45-61.77,0-.26,12.01-92.88,22.49-39.46,1.31,6.7-6,71.17-2.7,67.25,6.96-8.13,224.16-5.31,138.99-110.41-5.96-7.35-11.09-14.01-11.48-16.36h0Z" fill="#737373" fill-rule="evenodd"/><path d="m1898,1415.71c-34.32,35.19-9.83-8.13,61.12,57.03,21.4,19.66-89.48-30.06-93.88-7.4-2.31,11.92-21.75,83-15.05,82.48,8.87-.74,143.25-88.35,33.76,18.01-15.57,15.09-34.32,24.32-36.85,34.97-5.31,22.62,3.09,48.37,6.92,89.57.04.61,106.97-74.65,107.4-87.96.22-7-2.18-130.33,16.01-102.45,22.45,34.5,15.62,59.42,23.88,63.77,8.61,4.52,32.63-13.01,69.86-55.2,33.71-38.32-13.66-74.65-42.98-75.91-12.96-87.52-81.35-66.99-130.2-16.92h0Z" fill="#737373" fill-rule="evenodd"/><path d="m1947.2,1262.97c-27.71-9.92-57.73-9.92-85.65,14.79-3.96,3.48,1.44,37.24-9.66,52.55-.61.83-27.54,41.46-27.67,41.72,2,2.74,13.79-14.27,35.15-14.27,14.01,0,59.07,4.57,68.47-2.83,31.19-24.4,8.87-41.8,68.43-37.15,13.22,1.04-8-40.11-49.07-54.81h0Z" fill="#888" fill-rule="evenodd"/><path d="m2142,1196.03c-16.05-70.78,51.59-80.87,69.95-93.4.83-.57,42.2-26.36,42.46-26.49,2.65,2.09-14.66,13.4-15.23,34.76-.39,13.96,11.83,59.68.35,89.61-14.14,36.93-34.93,16.62-44.15,46.11-3.92,12.62-43.76-8.09-53.38-50.59h0Z" fill="#888" fill-rule="evenodd"/><path d="m2349.59,1618.81c14.75-96.83-62.42-86.48-87.83-104.53-1.83,2.09,14.44,14.14,14.83,35.5.26,14.01-.3,43.59,7.4,73.52,9.53,36.93,34.24,29.62,40.46,59.16,2.65,12.62,18.71-21.14,25.14-63.64h0Z" fill="#888" fill-rule="evenodd"/><path d="m2484.4,1306.34c-62.21-82.04-205.2-23.84-204.8,126.89,35.28-22.71,24.01-41.33,91.44-41.33,56.16,0,57.33,11.14,60.12,12.27,7.7,3.05-115.97,5.92-125.63,71.26-.74,5,67.73,85.05,68.3,70.86,1.13-29.62,34.89-82.09,66.64-86.96-7.57,16.36-33.37,51.29-35.93,102.31,37.11,16.57,59.51,50.2,59.99,50.77.44.48,1.65-24.97,38.98-69.34,7.61-9.05,36.63-30.93,47.72-28.36,0-41.28-87.39-141.99,17.14-58.86,16.4,13.05,7.53,41.37,66.64-20.23,57.77-60.12-115.15-45.5-98.75-48.68,12.66-2.48,41.5-44.33,118.98-16.36,14.44-16.57,30.8-183.75-170.83-64.25h0Z" fill="#737373" fill-rule="evenodd"/><path d="m2545.12,1640.3c-65.16-46.72,14.4-138.46,75.95-138.46,3.39,0,39.85,1.65,67.82,19.18-53.68,29.28-74.43,76.17-51.81,54.99,8.35-7.83,49.2-42.33,89.35-34.24,24.32,4.87,33.15,15.96,47.85,70.95.52,1.96-68.34-25.88-82.52-12.96-4.18,3.83,2.7,6.79,35.24,6.79,91.83,0,77.39,98.31,75.87,95.22-1.44-2.91-37.02-50.72-106.58-50.72,6.83,0,68.17,13.57,98.18,69.99,12.75,23.93,17.62,126.28-1.61,167-3.35,7.05-42.33-30.76-61.82-37.76,21.62-70.6-16.14-117.24-20.66-127.59-3.61,2.39,25.58,87-5.52,105.23-29.84-46.46-78.13-27.88-81.78-37.67-4.87-13.01-3.35-44.68-27.01-83.7-16.27-26.8-13.49-52.29-11.92,16.84,1.52,67.56,32.45,67.25-39.85,51.85-109.32-23.27-75.69-134.94.83-134.94h0Zm116.06,75.61c-1,16.05-23.84,63.86,7.92,64.47,17.79.35-4.87-63.64-7.92-64.47h0Zm78.26-11.92c18.92,52.16,7.61,126.41,39.37,127.02,17.79.35,13.18-102.01-39.37-127.02h0Z" fill="#737373" fill-rule="evenodd"/></g><g><path d="m1970.53,2011.66c-4.26,13.65,43.93,289.32,64.78,302.16,11.41,7.02,39.02,11.76,45.7-3.7,40.79-94.25,72.54-176.04,72.54-290.66-29.72-1.08-167.9,6.07-183.02-7.8h0Z" fill="#debdaf" fill-rule="evenodd"/><path d="m40.75,2262.09c-4.26,13.65,43.94,289.32,64.78,302.2,11.41,7.02,39.02,11.72,45.7-3.75,40.79-94.24,72.54-176.04,72.54-290.62-29.72-1.12-167.9,6.03-183.02-7.84h0Z" fill="#debdaf" fill-rule="evenodd"/><path d="m356.82,2439.08c-4.26,13.65,43.94,289.33,64.83,302.2,11.37,7.02,39.02,11.72,45.7-3.75,40.79-94.24,72.49-176.04,72.49-290.62-29.68-1.12-167.86,6.03-183.02-7.84h0Z" fill="#debdaf" fill-rule="evenodd"/><path d="m2012.61,1876.97c-26.1-70.12-317.8-225.96-320.04-246.21-1.55-14.39,19.04-32.26,88.6-54.36,0,0,237.64,92.74,327.14,249.09,54.96,96.01,51.17,219.55,51.56,304.96.04,5.94-10.64,61.77-101.78,67.93-15.51,1.03.82-310.95-45.49-321.41h0Z" fill="#bc6655" fill-rule="evenodd"/><path d="m1692.57,1630.76c-18.26,120.65-12.88,296.39,21.8,369.18,24.55,51.52,127.33,99.11,188.58,121.94,172.29,64.14,184.87,148.78,181.73-85.41-4.31-322.88-390.81-413.98-392.1-405.71h0Z" fill="#a34e45" fill-rule="evenodd"/><path d="m206.71,2118.57c313.4-123.32,1545.31-333.6,1848.07-163.98,23.73,13.31,82.44,224.67-9.13,248.62-277.48,72.66-1488.75,435.6-1555.21,368.24-61.81-62.67-306.86-351.65-283.73-452.88h0Z" fill="#a34e45" fill-rule="evenodd"/><path d="m132.28,2061.67c241.73-95.11,1421.94-436.98,1643.64-294.8,64.35,41.26,162.09,107.38,258.44,161.35,23.69,13.27,55.52,86.88-36.05,110.87-277.48,72.62-1488.79,435.6-1555.21,368.19-61.81-62.67-333.95-244.4-310.82-345.62h0Z" fill="#ad5547" fill-rule="evenodd"/><path d="m115.87,1661.73c241.73-95.11,1408.42-322.45,1548.92-261.11,1.03.47,145.72,370.35,83.65,388.87-274.51,82.01-1499.95,382.02-1566.37,314.65-61.81-62.67-89.33-341.19-66.2-442.41h0Z" fill="#b26659" fill-rule="evenodd"/><path d="m115.87,1661.91c16.2,18.26,101.61,386.15,95.19,529.42-.09,1.94-103.81-25.11-112.03-46.73-41.31-108.72-13.01-524.72,16.84-482.68h0Z" fill="#ad5547" fill-rule="evenodd"/><path d="m362.89,2233.71c-28.69-84.04-349.15-269.98-351.61-294.24-1.72-17.27,20.93-38.81,97.3-65.56,0,0,261.16,110.4,359.49,297.68,38.16,72.67,50.53,158.64,54.57,237.94,6.12,120.22,40.49,191.5-100.62,190.82-17.53-.09-8.27-354.24-59.14-366.64h0Z" fill="#bc6655" fill-rule="evenodd"/><path d="m11.29,1939.47c-20.07,144.86-14.13,355.7,23.95,442.93,26.96,61.77,138.57,123.15,207.18,145.63,201.71,66.12,222.99,161.57,199.69-103.2C408.04,2038.07,12.66,1929.52,11.29,1939.47h0Z" fill="#ad5547" fill-rule="evenodd"/><path d="m461.49,1591.78c68.96,43.81,163.64,384.26,144.81,441.89-1.46,4.48-24.81-145.8-63.79-263.35-33.12-99.76-62.89-150.5-81.02-178.54h0Z" fill="#ad5547" fill-rule="evenodd"/><path d="m864.06,1523.42c66.29,42.13,157.26,369.27,139.17,424.66-1.42,4.31-23.86-140.12-61.34-253.1-31.79-95.84-60.39-144.6-77.83-171.56h0Z" fill="#ad5547" fill-rule="evenodd"/><path d="m1259.9,1433.18c66.25,42.13,157.22,369.31,139.13,424.71-1.42,4.26-23.86-140.16-61.34-253.1-31.79-95.88-60.39-144.64-77.79-171.61h0Z" fill="#ad5547" fill-rule="evenodd"/></g><g><path d="m3375.06,2171.12c3.66,14-18.56,292.37-32.91,304.64-7.83,6.72-27.37,10.46-32.84-5.51-33.35-97.33-59.69-181.64-64.77-298.07,21.2,0,120.33,12.47,130.51-1.06h0Z" fill="#debdaf" fill-rule="evenodd"/><path d="m2454.22,2209.7c3.66,14-18.56,292.37-32.91,304.64-7.83,6.69-27.37,10.46-32.84-5.51-33.35-97.33-59.69-181.64-64.77-298.11,21.16,0,120.29,12.47,130.51-1.02h0Z" fill="#debdaf" fill-rule="evenodd"/><path d="m3043.88,2281.23c4.72,16.99-25.25,354.58-43.96,369.48-10.22,8.14-35.67,12.7-42.71-6.69-43.02-118.01-76.92-220.29-83.09-361.54,27.53,0,156.43,15.14,169.76-1.26h0Z" fill="#debdaf" fill-rule="evenodd"/><path d="m3415.56,1794.09c.28-67.91-70.47-210.38-227.25-247.7-192.17-45.73-396.85-8.42-419.82,96.54-32.72,149.51-292.53,256.63-358.16,338.97-65.87,82.54-63.63,136.57-58.55,253.13,26.78,2.32,86.51-108.38,302.99-108.38,173.34,0,425.36-91.66,589.93-30.28,102.04,38.07,161.46-174.6,170.86-302.28h0Z" fill="#a34e45" fill-rule="evenodd"/><path d="m2969.32,2484.3c123.52-19.74,369.21-150.92,292.13-312.7-86.59-181.91-767.95-107.67-892.57,47.03-17.7,21.94-24.42,89.89-16.4,112.47,23.2,65.43,431.5,131.77,590.21,156.94,12.66,2.01,15.61-1.97,26.62-3.74h0Z" fill="#a34e45" fill-rule="evenodd"/><path d="m2983.08,2417.6c123.52-19.78,369.17-150.92,292.14-312.74-98.9-207.71-973.49-22.41-908.96,159.54,23.2,65.4,431.5,131.77,590.21,156.9,12.66,2.01,15.61-1.93,26.62-3.7h0Z" fill="#ad5547" fill-rule="evenodd"/><path d="m3412.34,1838.92c5.9,55.49-9.12,435.94-56.43,467.91-29.41,19.82-307.55,191.82-399.65,180.85-9.67-451.16,330.67-385.29,456.07-648.76h0Z" fill="#a34e45" fill-rule="evenodd"/><path d="m3245.29,1565.97c113.96,51.04,186.39,184.31,167.05,272.95-87.85,208.26-381.87,241.05-441.76,508.81-4.72,21.12-12.74,115.73-14.31,139.95-19.66,4.99-40.7-4.52-53.95-6.1-8.38-390.68,215.14-420.88,414.75-646.6,52.54-59.42-8.97-230.2-133.39-264.22-82.5-22.53-202.2-29.26-294.49,2.91-83.68,29.18-95.71,109.63-144.99,179.39-58.04,82.11-213.8,140.31-288.67,236.33-91.19,116.91-99.96,344.08-103.03,341.68-84.43-64.96-16.83-244.91,23.67-314.75,54.97-94.77,186.16-155.52,276.44-243.65,56.98-55.64,101.69-131.34,143.22-178.18,84.19-95.01,344.95-75.38,449.47-28.55h0Z" fill="#b26659" fill-rule="evenodd"/></g><g><path d="m639.54,777.67c4.97-16.41,47.62-58.94,92.08-113.52,51.25-62.89,98.17-122.77,111.87-139.29.11-.14,17.9-19.98,15.36-9.15-1.54,6.57-62.82,75.26-119.65,145.87-47.39,58.86-67.29,86.36-99.66,116.08h0Z" fill="#ccc" fill-rule="evenodd"/><path d="m1076.92,779.63c-4.95-16.41-47.61-58.96-92.08-113.53-51.24-62.88-98.15-122.77-111.85-139.27-.11-.14-17.9-19.99-15.36-9.15,1.54,6.57,62.82,75.24,119.65,145.87,47.38,58.86,67.28,86.36,99.65,116.08h0Z" fill="#ccc" fill-rule="evenodd"/><path d="m856.07,511.73c-6.63,2.01-10.56,10.83-7.21,15.56,12.41,17.55,33.11-15.56,7.21-15.56h0Z" fill="#838383" fill-rule="evenodd"/><path d="m856.34,662.15c2.11-51.65,2.95-117.25-7.26-100.57-5.97,9.75-7.9,59.62-7.49,101-1.41.08-2.83.14-4.23.22-2.64-40.57-8.24-88.65-14.92-97.03-11.35-14.3-5.94,48.21-.09,98.25-3.29.32-6.55.71-9.76,1.12-12.72-69.6-33.18-172.24-38.81-146.24-3.31,15.3,11.7,92.13,24.88,148.33-2.68.45-5.34.94-7.97,1.46-13.33-47.62-30.89-103.34-35.86-86.37-2.86,9.78,8.7,52.39,20.87,89.71-1.51.37-3,.77-4.47,1.17-14.93-37.07-33.91-78.27-42.63-84.7-14.99-11.06,7.4,43.15,28.06,88.96-1.77.57-3.55,1.15-5.31,1.75-18.22-34.55-40.46-72.01-49.44-76.89-15.32-8.3,10.52,40.2,34.88,82.33-5.09,2.06-10.06,4.26-14.89,6.57-35.06-61.42-90.79-155.71-87.39-128.79,2.01,15.92,43.59,86.27,75.01,135.07-5.47,2.98-10.79,6.1-15.93,9.4-26.79-41.92-60.17-90.65-59.79-72.67.23,10.44,24.37,48.76,47.21,81.25-1.46,1.06-2.91,2.14-4.34,3.23-31.48-39.67-70.37-85.7-67.37-67.08,1.71,10.67,29.59,46.3,55.67,76.5-1.18,1.01-2.34,2.05-3.49,3.06-27.49-27.74-59.74-57.16-69.67-59.06-17.05-3.31,22.7,36.34,58.48,69.64-2.69,2.71-5.31,5.47-7.84,8.27-51.87-47.85-126.05-113.92-115.19-90.31,6.38,13.92,62.02,64.28,105.87,101.12-1.74,2.14-3.44,4.29-5.11,6.47-38.69-29.56-83.93-61.66-77.86-45.49,3.52,9.37,37.21,35.74,68.89,58.03-.89,1.31-1.77,2.63-2.61,3.95-33.88-20.42-72.86-41.4-83.55-41.3-18.61.17,31.71,30,75.7,54.21-.91,1.61-1.81,3.23-2.69,4.84-35.4-16.75-75.9-33.48-86.05-31.97-17.45,2.58,33.89,26.46,79.12,45.66-1.34,2.83-2.61,5.67-3.86,8.53-51.56-23.48-117.88-50.81-132.81-50.64-25.53.29,62.31,37.72,127.45,64.06-.78,2.12-1.54,4.24-2.28,6.38-45.06-15.18-94.39-29.71-83.56-16.72,6.18,7.43,43.24,20.76,78.92,31.55-.54,1.94-1.08,3.86-1.57,5.78-47.24-10.69-98.8-20.41-85.68-8.46,7.4,6.72,45.55,16.21,82.25,23.42-.35,1.75-.69,3.51-1.01,5.26-36.23-3.94-73.87-6.07-82.15-1.75-14.41,7.53,33.58,13.49,79.76,17.28-.23,1.85-.45,3.68-.63,5.5-.18,1.83-.34,3.66-.49,5.49-69.18-.32-156.4,1.11-133.83,10.72,13.01,5.54,78.07,5.84,133.03,4.11-.09,3-.12,6-.11,9-44.38,4.18-88.1,10.3-74.2,17.44,7.73,3.97,40.97,2.12,74.75-1.58.14,2.03.29,4.06.48,6.07-34.03,7.26-67.29,16.13-74.09,22.44-12.13,11.23,31.71,3.2,75.89-6.9.32,2.26.68,4.52,1.06,6.77-32.14,10.4-62.86,22.19-68.4,28.94-9.76,11.93,30.32.55,71.55-13.33.72,3.17,1.51,6.3,2.35,9.43-64.22,22.44-140.3,50.99-116.59,52.5,13.58.86,70.95-18.85,120.91-38.07,1.01,3.08,2.08,6.14,3.2,9.16-46.19,22.68-103.03,52.64-83.67,53.65,11.09.58,53.64-20.21,89.23-39.8,1.63,3.75,3.34,7.47,5.12,11.15-45.92,22.59-101.37,51.93-82.21,52.93,11.07.58,53.54-20.14,89.11-39.72.95,1.72,1.92,3.43,2.92,5.12-46.29,22.71-103.61,52.87-84.18,53.9,11.38.6,55.9-21.31,92.03-41.33,1.86,2.8,3.77,5.58,5.74,8.32-64.29,29.08-166.41,77.06-138.92,76.16,16.64-.54,95.71-38.09,147.3-65.14,2.26,2.83,4.6,5.61,6.98,8.37-42.47,21.64-87.7,46.87-70.78,48.24,10.01.8,47.96-17.79,81.65-36.49,1.37,1.38,2.72,2.77,4.11,4.12-42.04,26.97-89.37,59.59-70.95,58.51,10.87-.63,49.56-25.02,82.38-48.02,1.18,1.01,2.38,2.01,3.58,3.01-30.82,24.77-64.37,54.65-67.34,64.51-5.21,17.28,41.98-21.79,79.55-54.9,2.69,1.98,5.41,3.94,8.2,5.83-49.93,50.13-123.13,126.02-98.49,115.78,14.82-6.15,71.66-64.88,110.41-108.1,2.28,1.38,4.58,2.72,6.9,4.04-32.35,38.89-71.87,89.28-54.41,83.45,10.5-3.51,43.13-43.1,67.81-76.35,1.21.6,2.43,1.18,3.64,1.77-23.54,35.05-51.08,80.75-51.42,92.6-.57,20.51,38.04-41.46,64.75-86.73,1.48.61,2.94,1.23,4.43,1.81-20.07,37.2-43.89,87.33-42.61,98.95,2.2,19.78,34.71-46.96,56.28-94.06,6.27,2.08,12.67,3.97,19.22,5.61-27.11,47.85-57.13,105.61-58.28,119.71-2.01,24.82,41.15-54.51,73.23-116.36,2.37.48,4.77.91,7.17,1.31-18.81,42.61-36.66,87.96-23.04,78.61,8.01-5.51,24.88-41.58,39.01-76.3,2,.25,4,.48,6.01.68-15.27,46.59-30.35,98.72-17.05,86.59,7.8-7.09,21.79-47.92,32.65-85.5,1.65.08,3.28.15,4.92.22-7.97,37.71-14.59,79.49-10.83,88.7,6.66,16.24,18.19-40.06,26.48-88.57,3.4-.05,6.83-.15,10.27-.31-7.09,70.27-15.47,170.43-3.06,147.45,7.41-13.72,14.35-90.86,17.36-148.41,2.69-.23,5.4-.48,8.1-.77-.46,49.58.88,108.5,10.4,93.52,5.64-8.86,6.27-55.44,4.81-95.51,1.45-.22,2.88-.42,4.32-.65,3.95,40.75,10.95,88.62,17.78,97.52,11.87,15.48,4.27-49.13-3.18-100.2,1.68-.32,3.34-.66,5.01-1.02,7.95,40.1,19.88,87.7,27.66,95.37,13.32,13.15-.75-50.01-13.22-99.29,2.95-1,6.01-2.14,9.13-3.4,12.15,56.6,31.86,134,41.52,146.56,16.52,21.44-10.18-84.01-28.59-152.3,1.81-.88,3.66-1.78,5.51-2.74,15.58,48.12,36.77,107.5,41.01,89.5,2.54-10.75-12.99-58.36-27.71-96.78,1.46-.83,2.91-1.71,4.38-2.58,20.88,47.56,49.56,108.36,51.42,88.67,1.09-11.64-20.07-59.14-38.98-96.54,1.14-.75,2.26-1.51,3.4-2.28,20.42,35.86,47.73,78.64,57.65,83.36,16.96,8.07-17.81-49.13-45.5-91.99,2.52-1.88,5.06-3.78,7.6-5.77,41.92,56.91,108.78,144.89,102.24,118.44-3.91-15.76-54.53-82.21-91.54-127.08,1.98-1.66,3.97-3.35,5.95-5.07,33.61,37.94,77.86,85.08,74.7,66.86-1.85-10.7-34.83-47.73-63.62-76.92,1.01-.94,2.01-1.89,3.01-2.86,30.77,28.11,70.06,60.62,81.44,62.69,19.41,3.52-30.97-40.18-71.04-73.09,1.17-1.21,2.32-2.45,3.48-3.69,33,24.5,74.46,52.16,85.47,52.62,18.53.77-33.23-35.83-75.4-63.83,3.54-4.12,7-8.35,10.35-12.66,57.67,39.37,158.71,106.41,143.1,82.67-9.32-14.18-85.14-63.57-135.15-93.34,3.6-5.06,7.04-10.21,10.3-15.47,43.72,26.89,102.71,61.05,93.91,44.03-5.18-10.04-49.81-37.03-86.48-56.76.78-1.43,1.57-2.88,2.32-4.34,47.02,22.65,110.07,51.05,98.51,34.68-6.72-9.52-53.48-31.71-92.13-47.79.55-1.25,1.11-2.49,1.65-3.75,38.7,13.84,86.65,28.31,97.18,25.45,17.81-4.83-43.26-24.96-91.79-39.43,1.25-3.58,2.4-7.2,3.44-10.86,67.74,20.34,172.76,50.15,151.76,33.02-12.5-10.21-91.96-32.74-148.42-46.42.54-2.57,1.01-5.15,1.45-7.73,49.55,10.13,112.47,21.08,99.08,8.46-7.9-7.46-56.6-17.27-97.15-23.33.12-1.37.23-2.74.34-4.12,41.56,4.03,92.85,6.47,103.23,1.28,17.84-8.93-50.51-13.64-102.57-15.87.02-1.65.02-3.31,0-4.95,41.53-.11,93.11-2.86,102.37-9.23,15.73-10.81-51.78-8.6-102.92-5.54-.23-3.24-.52-6.49-.88-9.73,58.03-1.21,139.6-6.03,153.93-13.26,24.25-12.22-85.25-5.75-155.76-.51-.32-2-.68-3.98-1.05-5.97,50.22-6.24,112.73-15.88,95.82-23.47-9.96-4.46-58.66,1.65-98.92,8.77-.4-1.65-.83-3.29-1.26-4.95,50.36-11.55,113.73-27.94,94.96-33.41-10.93-3.17-59.3,8-99.05,19.24-.42-1.35-.88-2.69-1.32-4.03,38.37-13.22,83.01-31.19,89.34-39.8,10.76-14.67-47.79,6.84-94.46,25.6-1.2-3.04-2.46-6.09-3.75-9.1,63.8-30.57,157.16-77.19,130.63-75.78-15.64.83-85.74,35.48-136.49,62.97-1.18-2.41-2.38-4.83-3.63-7.23,42.46-25.39,91.62-57.02,73.93-57.34-10.21-.18-48.47,22.3-81.33,43.92-.77-1.32-1.57-2.64-2.35-3.95,31.92-24.19,66.91-53.51,70.83-63.65,6.75-17.45-40.1,18.81-78.96,50.9-1.03-1.52-2.08-3.04-3.14-4.55,28.71-26.77,59.39-58.45,61.74-68.46,4.01-17.07-36.57,21.25-70.95,56.02-2.05-2.61-4.14-5.2-6.26-7.73,24.71-23.82,47.81-48.55,49.84-57.17,3.6-15.33-28.76,13.99-60.29,45.32-2.31-2.48-4.66-4.91-7.06-7.3,46.1-31.39,100.75-71.6,108.16-84.04,12.89-21.67-62.72,32.12-118.96,73.78-1.74-1.57-3.49-3.11-5.26-4.63,36.08-30.31,73.24-64.09,56.68-61.65-9.66,1.41-40.95,26.65-69.01,51.73-1.58-1.2-3.17-2.38-4.77-3.54,34.23-35.15,70.78-75.41,53.48-70.35-10.03,2.92-40.13,32.94-66.26,61.69-1.4-.89-2.8-1.77-4.21-2.63,23.5-30.11,47.32-64.08,47.96-73.89,1.15-17.27-32.98,26.71-61.52,66.21-3.08-1.6-6.17-3.14-9.3-4.61,37.17-59.88,87.34-144.02,66.32-129.02-12.47,8.9-51.62,73.26-79.56,123.31-2.55-1.01-5.14-1.98-7.73-2.91,21.91-43.83,45.5-95.31,30.62-86.21-8.78,5.37-29.22,45.46-45.39,81.56-1.45-.4-2.91-.78-4.38-1.15,14.15-37.94,28.39-82.65,26.22-93.48-3.81-18.99-25.14,41.37-40.87,90.31-1.69-.31-3.41-.6-5.12-.86,10.44-39.38,20.53-86.91,16.95-97.17-6.2-17.71-21.41,45.53-31.89,95.34-3.26-.34-6.5-.63-9.72-.91,14.01-56.2,30.45-134.74,27.28-150.3-5.4-26.51-27.8,79.92-41.32,149.34-2.05-.11-4.08-.18-6.1-.26,7.17-50.01,14.21-112.39,2.49-98.11-6.92,8.44-13.84,57.08-17.56,97.8-1.71,0-3.41,0-5.11.02h0Z" fill="#a6a6a6" fill-rule="evenodd"/><path d="m925.6,1185.21c58.99-12.84,180.19-102.04,197.09-209.81,19.88-126.88-78.7-275.15-211.38-291.09-211.48-25.43-309.78,107.44-322.11,226.95-16.55,160.35,120.56,320.91,336.39,273.95h0Z" fill="#7a7a7a" fill-rule="evenodd"/><path d="m920.59,1172.36c55.93-12.18,170.86-96.75,186.87-198.92,18.85-120.3-74.61-260.88-200.41-275.99-200.51-24.11-293.69,101.86-305.39,215.18-15.68,152.04,114.3,304.26,318.94,259.74h0Z" fill="#ebebeb" fill-rule="evenodd"/></g><g><g><g><path d="m2387.12,2715.71c1.32,12.98,21.19,216.17,66.21,174.54,18.24-16.93,67.52-173.42,40.69-173.42-18.12,0-93.79-9.4-106.9-1.13h0Z" fill="#7a7a7a" fill-rule="evenodd"/><path d="m988.07,2767.43c1.38,12.98,21.19,216.17,66.21,174.48,18.31-16.93,67.52-173.42,40.69-173.42-18.06,0-93.79-9.4-106.9-1.07h0Z" fill="#7a7a7a" fill-rule="evenodd"/><path d="m1274.97,3165.73c1.38,12.98,21.19,216.17,66.21,174.48,18.31-16.93,67.59-173.42,40.69-173.42-18.06,0-93.79-9.4-106.9-1.07h0Z" fill="#7a7a7a" fill-rule="evenodd"/><path d="m1675.72,2507.5c-213.1-7.27-378.99,77.87-625.64,162.69-22.01,7.52-73.79,5.89-92.35,27.77-21.94,25.89-8.53,76.74-3.45,101.38,14.42,70.28,126.21,128.71,199.31,177.55,64.26,43.01,32.73,172.04,119.31,200.88,383.07,127.59,1063.75,7.65,1114.1-197.49,19.62-80.06-63.95-166.46,28.4-173.98,32.04-2.63,118.49.69,117.8-100.38-.63-90.41-96.99-169.47-322.76-124.51-185.64,37.05-350.4-67.59-534.73-73.92h0Z" fill="#a1a1a1" fill-rule="evenodd"/><path d="m1676.85,2419.03c-213.1-7.27-379.06,77.87-625.7,162.69-47.96,16.49-105.08,83.64-95.8,129.15,14.42,70.28,126.27,128.71,199.31,177.55,64.33,43.01,32.79,172.04,119.37,200.88,383.01,127.59,1023.94,18.75,1074.22-186.46,19.62-80.06-41.75-137.68,50.6-145.2,32.04-2.63,127.33-6.14,135.48-67.4,11.97-89.65-97.05-242.26-322.82-197.3-185.64,36.99-350.34-67.59-534.67-73.92h0Z" fill="#d3d3d3" fill-rule="evenodd"/><path d="m2248.94,2624.36c-40.88,36.93,99.81,58.56,76.86,8.65-6.46-14.04-53.67-11.97-69.65-9.72l-7.21,1.07Zm6.77,3.2c-33.29,30.09,81.32,47.71,62.57,7.02-5.2-11.41-43.7-9.72-56.68-7.84l-5.89.82Z" fill="#dedede" fill-rule="evenodd"/><path d="m2224.43,2612.7c-68.4,61.76,166.83,97.93,128.4,14.42-10.78-23.39-89.72-19.94-116.36-16.11l-12.04,1.69Zm11.29,5.39c-55.67,50.28,135.99,79.75,104.64,11.72-8.78-19.06-73.1-16.24-94.8-13.17l-9.84,1.44Z" fill="#dedede" fill-rule="evenodd"/><path d="m2202.8,2602.42c-92.6,83.64,225.95,132.6,173.85,19.56-14.55-31.66-121.44-27.02-157.55-21.88l-16.3,2.32Zm15.36,7.27c-75.49,68.15,184.01,108.02,141.63,15.92-11.91-25.83-99-22.01-128.4-17.81l-13.23,1.88Z" fill="#dedede" fill-rule="evenodd"/><path d="m2159.6,2581.92c-141,127.33,344.01,201.88,264.76,29.78-22.26-48.28-185.01-41.19-239.94-33.29l-24.83,3.51Zm23.32,11.1c-114.86,103.7,280.25,164.45,215.67,24.2-18.12-39.31-150.66-33.54-195.48-27.08l-20.19,2.88Z" fill="#dedede" fill-rule="evenodd"/><path d="m2113.83,2560.22c-192.29,173.54,469.02,275.23,361,40.56-30.34-65.83-252.22-56.18-327.21-45.45l-33.79,4.89Zm31.79,15.11c-156.61,141.38,382.19,224.26,294.1,33.04-24.7-53.6-205.45-45.77-266.52-36.99l-27.59,3.95Z" fill="#dedede" fill-rule="evenodd"/><path d="m1377.98,2723.61c-35.86,53.35,141.94,56.24,95.86-2.38-12.92-16.43-69.15-5.77-87.59-.13l-8.28,2.51Zm9.34,2.88c-29.22,43.45,115.61,45.83,78.12-1.94-10.53-13.42-56.36-4.7-71.35-.13l-6.77,2.07Z" fill="#dedede" fill-rule="evenodd"/><path d="m1344.06,2713.26c-59.94,89.15,237.3,93.98,160.31-4.01-21.57-27.46-115.61-9.59-146.39-.25l-13.92,4.26Zm15.61,4.76c-48.78,72.66,193.35,76.61,130.59-3.26-17.55-22.38-94.17-7.84-119.25-.19l-11.35,3.45Z" fill="#dedede" fill-rule="evenodd"/><path d="m1314.22,2704.11c-81.13,120.69,321.25,127.27,217.05-5.45-29.22-37.18-156.55-12.98-198.24-.25l-18.81,5.71Zm21.19,6.52c-66.14,98.31,261.69,103.64,176.8-4.45-23.82-30.34-127.52-10.6-161.5-.25l-15.3,4.7Z" fill="#dedede" fill-rule="evenodd"/><path d="m1268.39,2690.38c-114.48,170.22,453.1,179.43,306.08-7.65-41.25-52.48-220.75-18.37-279.56-.44l-26.52,8.09Zm29.84,9.15c-93.23,138.62,369.09,146.21,249.34-6.27-33.6-42.76-179.81-14.92-227.71-.31l-21.63,6.58Z" fill="#dedede" fill-rule="evenodd"/><path d="m1930.39,2913.01c62.38,56.3-152.16,89.28-117.05,13.1,9.78-21.32,81.75-18.18,106.08-14.73l10.97,1.63Zm-10.28,4.89c50.78,45.83-123.95,72.73-95.42,10.72,8.02-17.43,66.65-14.86,86.46-12.04l8.97,1.32Z" fill="#dedede" fill-rule="evenodd"/><path d="m1967.82,2895.2c104.26,94.17-254.36,149.28-195.74,22.01,16.43-35.67,136.74-30.47,177.37-24.64l18.37,2.63Zm-17.24,8.21c84.89,76.68-207.27,121.63-159.5,17.93,13.42-29.09,111.41-24.83,144.51-20.06l14.98,2.13Z" fill="#dedede" fill-rule="evenodd"/><path d="m2000.73,2879.59c141.19,127.46-344.39,202.07-265.01,29.78,22.26-48.34,185.14-41.25,240.19-33.35l24.83,3.57Zm-23.32,11.1c114.98,103.82-280.56,164.64-215.92,24.26,18.12-39.37,150.85-33.6,195.67-27.21l20.25,2.95Z" fill="#dedede" fill-rule="evenodd"/><path d="m2066.62,2848.31c214.92,194.04-524.38,307.71-403.57,45.33,33.92-73.54,281.94-62.76,365.76-50.72l37.81,5.39Zm-35.55,16.86c175.11,158.12-427.21,250.72-328.77,36.99,27.59-59.94,229.65-51.16,297.93-41.38l30.85,4.39Z" fill="#dedede" fill-rule="evenodd"/><path d="m2136.4,2815.21c293.04,264.57-714.98,419.62-550.28,61.82,46.21-100.31,384.45-85.58,498.68-69.22l51.6,7.4Zm-48.53,23.01c238.74,215.55-582.5,341.82-448.27,50.34,37.62-81.69,313.16-69.72,406.27-56.36l42.01,6.02Z" fill="#dedede" fill-rule="evenodd"/><path d="m1331.83,2826.36c81.63,25.58,329.4,16.87,306.2-115.92-34.98-199.75-713.47-11.97-306.2,115.92h0Zm3.76-3.82c78.24,24.51,315.73,16.18,293.48-111.16-33.48-191.41-683.88-11.41-293.48,111.16h0Z" fill="#dedede" fill-rule="evenodd"/><path d="m1313.96,2845.67c98.06,30.78,395.73,20.31,367.83-139.31-42.01-239.94-857.17-14.29-367.83,139.31h0Zm4.45-4.58c93.98,29.47,379.37,19.44,352.6-133.54-40.25-230.03-821.69-13.73-352.6,133.54h0Z" fill="#dedede" fill-rule="evenodd"/><path d="m1284.06,2877.84c125.45,39.37,506.33,25.96,470.59-178.18-53.73-306.96-1096.54-18.31-470.59,178.18h0Zm5.77-5.89c120.25,37.81,485.33,24.95,451.09-170.78-51.54-294.23-1051.15-17.55-451.09,170.78h0Z" fill="#dedede" fill-rule="evenodd"/><path d="m1255.28,2908.87c151.85,47.65,612.85,31.47,569.65-215.67-65.02-371.6-1327.39-22.19-569.65,215.67h0Zm6.96-7.08c145.58,45.7,587.46,30.09,546.01-206.77-62.32-356.24-1272.4-21.25-546.01,206.77h0Z" fill="#dedede" fill-rule="evenodd"/></g><g><path d="m1633.17,2658.99c-4.79-13.71,44.73-28.37,87.96-42.08,108.31-34.4,152.29-52.5,180.56-56.2,20.2.41,31.56,7.4,76.29,25.77,39.94,16.31,215.87,75.93,228.28,85.26-28.12,18.92-276.3,119.8-276.3,119.8-19.75-5.76-26.33-17.27-64.03-27.28-11.82-3.02-227.24-89.37-232.77-105.27h0Z" fill="#8f8f8f" fill-rule="evenodd"/><path d="m1940.43,2725.88c-33.96,11.1-27.53,74.7-6.28,62.23,66.27-39.34,188.64-76.89,243.09-108.42,1.5-.82-19.45-14.39-2.39-40.3-51.01,12.06-185.2,79.5-230.68,86.08-1.5.14-.45-.55-3.74.41h0Z" fill="#e6e6e6" fill-rule="evenodd"/><path d="m1641.69,2609.37c-21.09,8.64-23.64,46.74-3.89,62.5,42.48,33.86,291.56,118.84,292.16,119.66-4.64,0-13.01-33.03,7.78-50.71,4.49-3.84-75.55-39.2-83.77-43.18-27.08-12.88-195.52-84.98-212.28-88.27h0Z" fill="#8e8e8e" fill-rule="evenodd"/><path d="m1641.69,2609.37c73.75-30.57,161.11-83.47,241.9-94.03,32.16.69,290.21,107.87,308.47,122.4-27.38,18.78-254.31,103.07-254.31,103.07-19.15-5.76-32.76-16.17-69.56-26.04-11.37-3.15-221.1-89.37-226.49-105.4h0Z" fill="#bcbcbc" fill-rule="evenodd"/><path d="m1670.12,2593.33c-4.19-12.06,39.34-24.81,77.34-37.01,95.29-30.29,134.19-46.19,158.87-49.34,17.8.27,27.82,6.44,67.32,22.62,35.01,14.39,189.84,66.75,200.76,74.98-24.68,16.58-243.09,105.4-243.09,105.4-17.35-5.07-23.19-15.21-56.4-23.99-10.32-2.6-200.01-78.54-204.8-92.66h0Z" fill="#959595" fill-rule="evenodd"/><path d="m1940.58,2652.27c-29.92,9.73-24.23,65.79-5.68,54.69,58.34-34.68,166.2-67.57,213.92-95.4,1.35-.69-17.05-12.61-2.09-35.36-44.88,10.55-162.91,69.9-202.85,75.66-1.5.14-.45-.55-3.29.41h0Z" fill="#e6e6e6" fill-rule="evenodd"/><path d="m1677.6,2549.75c-18.55,7.54-20.64,41.12-3.44,54.96,37.55,29.88,256.71,104.58,257.15,105.27-4.19,0-11.52-29.06,6.88-44.55,3.89-3.43-66.57-34.54-73.75-37.97-23.79-11.38-172.03-74.84-186.84-77.72h0Z" fill="#7e7e7e" fill-rule="evenodd"/><path d="m1677.6,2549.75c11.37-11.1,38.3-24.95,75.25-37.01,92.75-30.29,113.54-42.63,137.78-45.78,28.27.55,255.21,94.99,271.37,107.6-24.08,16.58-223.79,90.88-223.79,90.88-16.9-5.07-28.87-14.25-61.18-23.03-10.17-2.74-194.62-78.54-199.41-92.66h0Z" fill="#959595" fill-rule="evenodd"/><path d="m1864.29,2473.67c5.68,3.84,14.36,6.99,22.14,6.85,11.37-.14,24.38-6.03,24.68-8.91-11.67-4.8-19.9-6.03-23.49-5.76-6.28.55-11.67,2.88-23.34,7.81h0Z" fill="#c6c6c6" fill-rule="evenodd"/><path d="m2129.07,2590.18c-22.44-15.76,5.09-30.02,5.98-29.33,14.66,6.99,29.77,11.79,26.93,13.71-5.09,3.56-20.64,12.2-32.91,15.63h0Z" fill="#c6c6c6" fill-rule="evenodd"/><path d="m1778.42,2544.4c5.24-1.92,86.02-31.94,96.34-38.79,7.18-4.8,24.23,1.23-1.05,10.69-18.4,6.72-80.18,40.57-97.98,37.97-4.19-.69-2.39-8.09,2.69-9.87h0Z" fill="#adadad" fill-rule="evenodd"/><path d="m1830.03,2546.32c3.29-1.23,54.3-20.15,60.74-24.4,4.64-3.15,15.41.69-.6,6.72-11.67,4.25-50.56,25.63-61.78,23.99-2.84-.41-1.65-5.07,1.65-6.31h0Z" fill="#adadad" fill-rule="evenodd"/><path d="m1565.25,2820.04c0-.14-15.26,4.39-28.87,0-12.72-4.11-24.08-17-24.23-16.86-2.39,2.06-1.05,3.02,1.35,7.4,4.19,7.13-9.13,1.64-5.54,8.22,2.24,3.98,3.14,4.52,3.74,5.48.45.69,1.35.82-1.05,6.31-2.24,5.35,16.75,7.81,24.98,5.35,17.5-5.21,27.23-13.57,28.57-14.67.9-.69,1.2-1.1,1.05-1.23h0Z" fill="#bebebe" fill-rule="evenodd"/></g></g><g><path d="m1566.19,2835.39c3.77-12.15-36.35-25.03-71.45-37.18-87.98-30.62-123.82-46.66-146.67-49.83-16.39.37-25.65,6.58-62.08,22.85-32.33,14.45-175.35,67.19-185.32,75.58,22.85,16.65,224.31,106.08,224.43,106.08,15.93-5.1,21.27-15.3,51.89-24.06,9.61-2.79,184.7-79.22,189.2-93.43h0Z" fill="#878787" fill-rule="evenodd"/><path d="m1316.47,2894.81c27.71,9.71,22.36,66.22,5.23,55.04-53.83-34.87-153.35-68.04-197.45-95.99-1.23-.85,15.8-12.88,1.94-35.73,41.43,10.7,150.42,70.36,187.24,76.19,1.33.26.36-.48,3.03.49h0Z" fill="#e6e6e6" fill-rule="evenodd"/><path d="m1559.25,2791.53c17.14,7.53,19.09,41.43,3.15,55.28-34.63,30.14-236.93,105.48-237.31,106.08,3.78,0,10.58-29.16-6.42-44.83-3.65-3.53,61.35-34.87,68.16-38.27,21.98-11.55,158.68-75.34,172.42-78.25h0Z" fill="gray" fill-rule="evenodd"/><path d="m1559.25,2791.53c-59.9-27.09-130.99-74.01-196.6-83.48-26.12.61-235.62,95.75-250.57,108.52,22.24,16.65,206.58,91.49,206.58,91.49,15.54-5.1,26.6-14.47,56.49-23.21,9.36-2.68,179.71-79.22,184.09-93.31h0Z" fill="#878787" fill-rule="evenodd"/><path d="m1536.04,2777.18c3.41-10.68-31.95-21.98-62.81-32.68-77.42-26.86-108.87-41.07-129.05-43.86-14.47.36-22.48,5.83-54.56,20.06-28.54,12.75-154.3,59.17-163.06,66.58,20.06,14.71,197.33,93.31,197.45,93.31,13.97-4.48,18.71-13.48,45.69-21.13,8.38-2.44,162.47-69.75,166.35-82.27h0Z" fill="#a6a6a6" fill-rule="evenodd"/><path d="m1316.47,2829.44c24.3,8.62,19.68,58.31,4.5,48.48-47.39-30.62-134.88-59.92-173.76-84.45-1.09-.73,13.97-11.3,1.7-31.47,36.45,9.36,132.46,61.98,164.77,67.07,1.21.26.49-.36,2.79.37h0Z" fill="#e6e6e6" fill-rule="evenodd"/><path d="m1529.98,2738.55c15.18,6.68,16.89,36.45,2.79,48.72-30.38,26.5-208.39,92.84-208.77,93.31,3.29,0,9.24-25.63-5.59-39.48-3.27-3.03,53.95-30.62,59.9-33.66,19.32-10.09,139.75-66.22,151.66-68.9h0Z" fill="#a6a6a6" fill-rule="evenodd"/><path d="m1529.98,2738.55c-9.24-9.71-31.12-22-61.12-32.68-75.34-26.98-92.22-37.92-111.79-40.71-22.97.61-207.42,84.22-220.42,95.51,19.44,14.69,181.65,80.43,181.77,80.43,13.62-4.5,23.33-12.64,49.69-20.3,8.16-2.42,158.1-69.75,161.87-82.26h0Z" fill="#b7b7b7" fill-rule="evenodd"/><path d="m1378.31,2671.1c-4.6,3.41-11.54,6.32-17.86,6.2-9.22-.24-19.8-5.47-20.16-7.89,9.47-4.38,16.15-5.35,19.07-5.11,5.11.49,9.47,2.44,18.95,6.8h0Z" fill="#d3d3d3" fill-rule="evenodd"/><path d="m1448.06,2733.81c-4.24-1.7-69.75-28.32-78.25-34.39-5.83-4.26-19.68,1.09.85,9.47,14.94,6.08,65.13,36.09,79.6,33.66,3.53-.48,2.06-7.17-2.2-8.74h0Z" fill="#a6a6a6" fill-rule="evenodd"/><path d="m1406.14,2735.63c-2.66-1.09-43.98-17.86-49.32-21.76-3.77-2.68-12.52.73.48,5.96,9.47,3.89,41.19,22.72,50.3,21.27,2.18-.37,1.21-4.5-1.47-5.47h0Z" fill="#a6a6a6" fill-rule="evenodd"/><path d="m1303.3,2847.2c-7.43-4.4-29.91-12.1-46.74-20.06-37.44,32.24-28.75,27.79-41.24,72.7-5.37,19.31-10.07,25.7-20.48,29.34,9.68,5.73,18.08-2.52,22.27-2.78,2.85-.17,1.89,2.44-7.55,15.9,20.7,2.49,33.77-12.73,36.57-26.99,5.32-27.13,8.4-35.87,17.72-45.04,16.22-15.98,39.31-19.29,39.45-23.07h0Z" fill="silver" fill-rule="evenodd"/><path d="m1163.57,2775.08c18.22-14.11-4.14-26.74-4.87-26.14-11.91,6.2-24.18,10.46-21.74,12.29,4,3.03,16.65,10.68,26.62,13.85h0Z" fill="#d3d3d3" fill-rule="evenodd"/></g></g><g><path d="m2201.42,461.49c4.07-4.25,39.02-15.3,75.47-29.47,42-16.32,80.46-31.87,91.69-36.16.09-.04,14.67-5.19,12.59-2.38-1.26,1.7-51.49,19.54-98.08,37.87-38.84,15.29-55.15,22.42-81.68,30.14h0Z" fill="#ccc" fill-rule="evenodd"/><path d="m2559.91,462c-4.07-4.26-39.02-15.31-75.47-29.47-42-16.32-80.46-31.87-91.69-36.17-.09-.03-14.68-5.18-12.59-2.38,1.26,1.71,51.49,19.54,98.08,37.88,38.84,15.29,55.15,22.42,81.68,30.14h0Z" fill="#ccc" fill-rule="evenodd"/><path d="m2378.88,392.45c-5.43,1.64-8.65,8.85-5.9,12.74,10.17,14.35,27.13-12.74,5.9-12.74h0Z" fill="#838383" fill-rule="evenodd"/><path d="m2183.1,431.75c74.78-4.03,237.81.41,389.58-1.21,0,149.77,5.57,280.26,2.52,442.58-79.08,4.63-388.92.64-388.75-3.81.32-8.34-3.67-437.29-3.35-437.57h0Z" fill="#6b6b6b" fill-rule="evenodd"/><path d="m2212.41,456.86c63.62-3.58,202.34.37,331.48-1.07,0,132.74,4.74,248.39,2.15,392.25-67.3,4.11-330.92.58-330.78-3.37.27-7.39-3.13-387.57-2.85-387.82h0Z" fill="#f1f1f1" fill-rule="evenodd"/><path d="m2249.62,500.43c49.46-2.78,157.31.28,257.69-.84,0,103.2,3.69,193.11,1.67,304.95-52.32,3.19-257.26.45-257.15-2.62.21-5.76-2.43-301.3-2.21-301.49h0Z" fill="#fefefe" fill-rule="evenodd"/><path d="m2296.4,718.02c2.34-62.91,13.24-134.36,85.53-138.78,26.63-1.64,54.79-.26,71.42,41.61,2.65,6.65,18.71,74.98,14.34,97.17h-25.6c-2.91-8.55,2.95-26.95-13.35-65.39-19.7-46.42-66.74-57.98-86.69,7.96-2.21,7.33-8.06,38.71-14.23,57.43h-31.41Z" fill="silver" fill-rule="evenodd"/><path d="m2314.96,718.02c2.05-56.05,11.26-118.41,67.05-122.34,20.91-1.47,43.03-.23,56.08,37.55,1.98,5.74,13.57,62.28,11.62,84.79h-21.01c-.94-8.72,1.44-25.27-9.94-56.1-15.46-41.89-52.39-52.33-68.06,7.19-1.64,6.25-5.82,31.85-10.36,48.91h-25.37Z" fill="#a6a6a6" fill-rule="evenodd"/><path d="m2333.06,718.02c1.77-48.39,9.26-100.55,49.02-103.92,15.33-1.3,31.55-.2,41.13,33.18,1.35,4.74,8.9,48.83,8.68,70.74h-15.76c-.2-8.44-.07-22.44-7.1-45.4-11.34-37.01-38.42-46.23-49.92,6.35-1.1,5.03-3.74,24.28-6.73,39.06h-19.33Z" fill="silver" fill-rule="evenodd"/></g><g><path d="m1429.12,369.49c6.07-6.76,58.38-24.33,112.9-46.88,62.82-25.96,120.35-50.7,137.14-57.51.14-.07,21.94-8.26,18.84-3.78-1.87,2.71-77.01,31.08-146.7,60.24-58.09,24.32-82.49,35.68-122.17,47.94h0Z" fill="#ccc" fill-rule="evenodd"/><path d="m1965.36,370.3c-6.07-6.76-58.36-24.35-112.9-46.88-62.82-25.96-120.34-50.7-137.14-57.53-.14-.05-21.94-8.24-18.84-3.78,1.89,2.72,77.01,31.08,146.7,60.25,58.1,24.32,82.49,35.66,122.17,47.94h0Z" fill="#ccc" fill-rule="evenodd"/><path d="m1694.58,259.66c-8.12,2.6-12.94,14.08-8.83,20.26,15.21,22.83,40.59-20.26,8.83-20.26h0Z" fill="#838383" fill-rule="evenodd"/><path d="m1413.46,322.17c107.4-6.42,341.51.66,559.47-1.93,0,238.24,8,445.82,3.62,704.03-113.57,7.37-558.51,1.02-558.27-6.05.45-13.27-5.27-695.6-4.82-696.05h0Z" fill="#6b6b6b" fill-rule="evenodd"/><path d="m1445.54,362.11c95.19-5.69,302.68.59,495.85-1.7,0,211.15,7.09,395.13,3.21,623.97-100.65,6.54-495,.92-494.79-5.36.4-11.76-4.67-616.51-4.27-616.91h0Z" fill="#f1f1f1" fill-rule="evenodd"/><path d="m1521.36,651.02c-18.87,77.03-12.96,155.39,60.58,182.19,57.01,20.76,156.08,11.83,156.08-84.66,0-138.96-44.38-119.19-44.56-204.94-.16-80.24-126.89-77.04-172.11,107.41h0Z" fill="silver" fill-rule="evenodd"/><path d="m1784.54,764.8c185.71-162.03.29-180.71-23.62-141.5-30.79,50.44-13.15,40.69-64.59,103.03-32.73,39.63-21.42,134.13,88.21,38.47h0Z" fill="silver" fill-rule="evenodd"/><path d="m1725.31,661.01c26.92-27.98-13.58-42.89-22.98-38-27.35,14.24-5.26,67.33,22.98,38h0Z" fill="#a6a6a6" fill-rule="evenodd"/><path d="m1775.87,567.42c26.92-27.96-13.58-42.88-22.98-37.98-27.35,14.24-5.26,67.33,22.98,37.98h0Z" fill="#a6a6a6" fill-rule="evenodd"/><path d="m1795.47,883.06c26.92-27.96-13.58-42.88-22.98-37.98-27.35,14.24-5.26,67.33,22.98,37.98h0Z" fill="#878787" fill-rule="evenodd"/><path d="m1822.54,801.07c13.44-14-6.8-21.46-11.5-18.99-13.67,7.11-2.62,33.67,11.5,18.99h0Z" fill="#878787" fill-rule="evenodd"/><path d="m1844.8,848.54c11.34,11.79-5.72,18.07-9.7,16.01-11.52-6-2.2-28.38,9.7-16.01h0Z" fill="#878787" fill-rule="evenodd"/><path d="m1871.13,816.32c13.46-13.98-6.78-21.44-11.5-18.99-13.67,7.13-2.62,33.67,11.5,18.99h0Z" fill="#878787" fill-rule="evenodd"/><path d="m1893.38,863.8c11.34,11.79-5.71,18.07-9.68,16.01-11.53-6-2.22-28.38,9.68-16.01h0Z" fill="#878787" fill-rule="evenodd"/><path d="m1858.38,758.09c11.34,11.79-5.71,18.07-9.68,16.01-11.53-5.98-2.22-28.38,9.68-16.01h0Z" fill="#878787" fill-rule="evenodd"/><path d="m1698.7,864.43c26.92-27.98-13.56-42.89-22.98-37.98-27.34,14.22-5.24,67.33,22.98,37.98h0Z" fill="#878787" fill-rule="evenodd"/></g></g></svg>