<?xml version="1.0" encoding="UTF-8"?><svg id="a" xmlns="http://www.w3.org/2000/svg" viewBox="0 0 337 337"><rect x="0" width="337" height="337" rx="70" ry="70" fill="#f2f2f2"/><path d="m194.27,228.98c-11.21,4.01-21.57,5-31.02,2.95-9.47-2.04-17.94-7-25.42-14.87-5.15-5.42-9.57-12.15-13.25-20.12l143.42-51.22c-.37-1.06-.93-2.82-1.66-5.29-.71-2.45-1.47-4.75-2.22-6.89-7.06-19.75-16.71-35.36-28.94-46.82-12.21-11.44-26.54-18.46-42.96-21.03-16.44-2.57-34.39-.37-53.9,6.6-19.5,6.96-35.05,16.98-46.66,30-11.61,13.04-18.79,28.16-21.51,45.41-2.74,17.23-.62,35.61,6.35,55.11,6.87,19.23,16.74,34.66,29.65,46.34,12.89,11.65,27.91,18.94,45.08,21.86,17.15,2.91,35.07,1.02,53.76-5.65,13.04-4.65,24.36-10.47,33.99-17.44l-20.76-32.62c-6.44,5.71-14.43,10.26-23.96,13.68Zm-80.07-79.38c.89-10.57,4.3-19.62,10.19-27.14,5.9-7.52,14.31-13.23,25.27-17.15,9.09-3.24,17.75-4.09,26-2.51,8.24,1.58,15.59,5.29,22.03,11.11,5.29,4.76,9.57,10.94,12.89,18.42l-95.6,34.14c-.96-5.98-1.22-11.59-.77-16.88Z" fill="#292929"/></svg>