<?xml version="1.0" encoding="UTF-8"?><svg id="b" xmlns="http://www.w3.org/2000/svg" viewBox="0 0 133.13 174.59"><g id="c"><g><g><path d="m7.89,30.51c2.91-4.67,5.68-9.48,8.29-14.43,2.61-4.95,5.13-10.14,7.55-15.59h9.4l1.48,1.9c-2.75,5.39-5.21,10.02-7.38,13.9-2.17,3.88-4.34,7.09-6.52,9.65-2.17,2.56-4.69,4.63-7.55,6.23l-1.48-1.9,32.58-1.65v6.52H10.03l-2.14-4.62Zm20.12-.41l1.32-9.81,8.58-.5v22.6h-9.9v-12.29Z" fill="#c6c6c6"/><path d="m56.01,40.49c-2.5-1.81-4.3-4.33-5.4-7.55-1.1-3.22-1.65-6.86-1.65-10.93,0-5.11.78-9.29,2.35-12.54,1.57-3.24,3.72-5.64,6.47-7.18,2.75-1.54,5.88-2.31,9.4-2.31,4.18,0,7.5.89,9.98,2.68,2.47,1.79,4.26,4.26,5.36,7.42,1.1,3.16,1.65,6.8,1.65,10.93,0,5.11-.77,9.31-2.31,12.58-1.54,3.27-3.67,5.69-6.39,7.26s-5.87,2.35-9.44,2.35c-4.18,0-7.52-.91-10.02-2.72Zm7.38-34.39c-.82.99-1.44,2.61-1.86,4.87-.41,2.25-.62,5.31-.62,9.15,0,6.65.45,11.4,1.36,14.23.91,2.83,2.38,4.25,4.41,4.25,1.26,0,2.31-.51,3.13-1.53.82-1.02,1.44-2.67,1.86-4.95.41-2.28.62-5.35.62-9.2,0-6.71-.45-11.44-1.36-14.19-.91-2.75-2.41-4.12-4.49-4.12-1.21,0-2.23.49-3.05,1.48Z" fill="#c6c6c6"/><path d="m87.88,30.51c2.91-4.67,5.68-9.48,8.29-14.43s5.13-10.14,7.55-15.59h9.4l1.48,1.9c-2.75,5.39-5.21,10.02-7.38,13.9-2.17,3.88-4.34,7.09-6.52,9.65s-4.69,4.63-7.55,6.23l-1.48-1.9,32.58-1.65v6.52h-34.23l-2.14-4.62Zm20.12-.41l1.32-9.81,8.58-.5v22.6h-9.9v-12.29Z" fill="#c6c6c6"/></g><g><g><g><path d="m111.36,152.6c0-.19,5.27,19.4,4.59,21.07-.68,1.67-3.1.74-4.59-.37-1.49-1.12-10.1-21.44-10.1-21.44l10.1.74Z" fill="#ccc"/><path d="m94.67,148.53c0-.16,4.4,16.2,3.83,17.59-.57,1.4-2.59.62-3.83-.31-1.24-.93-8.43-17.9-8.43-17.9l8.43.62Z" fill="#ccc"/></g><g><path d="m24.74,152.6c0-.19-5.27,19.4-4.59,21.07.68,1.67,3.1.74,4.59-.37,1.49-1.12,10.1-21.44,10.1-21.44l-10.1.74Z" fill="#ccc"/><path d="m41.42,148.53c0-.16-4.4,16.2-3.83,17.59.57,1.4,2.59.62,3.83-.31,1.24-.93,8.43-17.9,8.43-17.9l-8.43.62Z" fill="#ccc"/></g><g><g><path d="m32.37,124.99c14.06,15.6,34.2,12.17,34.2,12.17,0,0,20.14,3.43,34.2-12.17,14.05-15.6,21.69-68.72,20.03-77.9-1.66-9.19-10.84-4.76-16.71-5.31-5.86-.56-18.59-7.19-37.51-7.19s-31.65,6.64-37.51,7.19c-5.86.55-15.05-3.87-16.71,5.31-1.66,9.18,5.97,62.3,20.03,77.9Z" fill="#efefef"/><path d="m2.27,121.56c6.64,26,11.18,31.98,14.72,34.08,3.54,2.1,18.59,4.32,49.58,4.32s46.03-2.21,49.58-4.32c3.54-2.1,8.08-8.08,14.72-34.08,6.64-26-2.88-28.55-8.08-29.65-.06-.01-.11-.03-.17-.04-5.54,3.3-9.78,16.16-12.88,27.95-.21.8-.41,1.59-.61,2.38-1.74,6.87-3.08,13.11-4.04,16.5-.51,1.78-.91,2.78-1.22,2.67-.59-.22-2.55-.34-5.42-.4h-17.63c-4.7.03-9.62.07-14.23.07s-9.53-.04-14.23-.07h-17.63c-2.87.06-4.83.19-5.43.4-.31.11-.71-.89-1.22-2.67-.96-3.39-2.3-9.63-4.04-16.5-.2-.79-.4-1.58-.61-2.38-3.09-11.79-7.34-24.65-12.88-27.95-.06,0-.11.02-.17.04-5.2,1.11-14.72,3.65-8.08,29.65Z" fill="#efefef"/><path d="m10.52,91.87c5.54,3.3,9.78,16.16,12.88,27.95.21.8.41,1.59.61,2.38,1.74,6.87,3.08,13.11,4.04,16.5.51,1.78.91,2.78,1.22,2.67.59-.22,2.56-.34,5.43-.4h0c4.34-.09,10.76-.05,17.63,0h28.47c6.87-.05,13.28-.09,17.63,0h0c2.87.06,4.83.19,5.42.4.31.11.71-.89,1.22-2.67.96-3.39,2.3-9.63,4.04-16.5.2-.79.4-1.58.61-2.38,3.09-11.79,7.34-24.65,12.88-27.95-2.63-.55-5.1-.93-7.65-.75-2.3,9.33-5.22,18.41-8.7,25.38-1.23,2.46-2.52,4.65-3.88,6.5h0c-.53.72-1.06,1.38-1.61,1.99-14.06,15.6-34.2,12.17-34.2,12.17,0,0-20.14,3.43-34.2-12.17-.55-.61-1.09-1.27-1.61-1.99h0c-1.36-1.85-2.65-4.04-3.88-6.5-3.47-6.97-6.39-16.05-8.7-25.38-2.56-.18-5.03.2-7.65.75Z" fill="#e2e2e2"/></g><g><path d="m95.76,130.01s-.02,0-.03,0c-.22-.02-.38-.21-.36-.42.55-6.81.82-18.17,1.1-30.2.41-17.45.83-35.5,2.18-42.43,1.62-8.28,5.12-12.99,7.76-15.48.16-.15.41-.14.56.02s.14.41-.02.56c-2.57,2.41-5.95,6.97-7.53,15.05-1.34,6.86-1.76,24.88-2.17,42.3-.28,12.04-.55,23.41-1.1,30.24-.02.21-.19.36-.39.36Z" fill="#d8d8d8"/><path d="m75.3,136.89s-.03,0-.04,0c-.22-.02-.37-.21-.35-.43.02-.15,1.49-15.39,1.49-51.23,0-26.02,1.69-42.29,2.7-49.67.03-.22.23-.37.44-.34.22.03.37.23.34.44-1.01,7.36-2.69,23.59-2.69,49.56,0,35.89-1.48,51.16-1.5,51.31-.02.2-.19.35-.39.35Z" fill="#d8d8d8"/></g><g><path d="m38.59,130.9c-.2,0-.37-.15-.39-.36-.61-6.69-.89-18.56-1.18-31.13-.41-17.42-.83-35.44-2.17-42.3-1.57-8.03-4.93-12.59-7.47-15-.16-.15-.16-.4-.02-.56.15-.16.4-.16.56-.02,2.63,2.49,6.1,7.18,7.71,15.42,1.35,6.93,1.77,24.98,2.18,42.44.29,12.55.57,24.41,1.18,31.08.02.22-.14.41-.36.43-.01,0-.02,0-.04,0Z" fill="#d8d8d8"/><path d="m58.97,136.89c-.2,0-.37-.15-.39-.35-.01-.15-1.49-15.42-1.49-51.31,0-26.11-1.7-42.37-2.72-49.73-.03-.22.12-.41.34-.44.22-.03.41.12.44.34,1.02,7.39,2.72,23.68,2.72,49.84,0,35.84,1.48,51.08,1.49,51.23.02.22-.14.41-.35.43-.01,0-.03,0-.04,0Z" fill="#d8d8d8"/></g></g></g><path d="m68.45,150c-1.59-.02-38.77-.51-43.92-1.71-5.54-1.29-11.79-23.18-14.28-37.56-2.45-14.18-5.56-16.28-5.59-16.3l.4-.68c.14.08,3.42,2.12,5.96,16.84,2.87,16.62,9.19,35.88,13.68,36.93,5.06,1.18,43.35,1.69,43.74,1.69.34,0,35.04-.51,40.1-1.69,4.49-1.05,10.81-20.3,13.68-36.93,2.54-14.73,5.83-16.76,5.96-16.84l.39.68s-3.13,2.12-5.58,16.29c-2.48,14.38-8.73,36.27-14.28,37.56-5.14,1.2-38.84,1.69-40.27,1.71Z" fill="#d8d8d8"/><g><g><g><path d="m96.65,60.43c0,.8.64,1.44,1.44,1.44s1.44-.64,1.44-1.44-.64-1.44-1.44-1.44-1.44.64-1.44,1.44Z" fill="#d8d8d8"/><path d="m95.92,73.04c0,.8.64,1.44,1.44,1.44s1.44-.64,1.44-1.44-.64-1.44-1.44-1.44-1.44.64-1.44,1.44Z" fill="#d8d8d8"/><path d="m95.49,85.66c0,.8.64,1.44,1.44,1.44s1.44-.64,1.44-1.44-.64-1.44-1.44-1.44-1.44.64-1.44,1.44Z" fill="#d8d8d8"/><path d="m95.14,98.27c0,.8.64,1.44,1.44,1.44s1.44-.64,1.44-1.44-.64-1.44-1.44-1.44-1.44.65-1.44,1.44Z" fill="#d8d8d8"/></g><g><path d="m76.08,55.56c0,.8.64,1.44,1.44,1.44s1.44-.64,1.44-1.44-.65-1.44-1.44-1.44-1.44.65-1.44,1.44Z" fill="#d8d8d8"/><path d="m75.35,69.45c0,.8.64,1.44,1.44,1.44s1.44-.64,1.44-1.44-.64-1.44-1.44-1.44-1.44.64-1.44,1.44Z" fill="#d8d8d8"/><path d="m75.3,83.34c0,.8.65,1.44,1.44,1.44s1.44-.64,1.44-1.44-.64-1.44-1.44-1.44-1.44.64-1.44,1.44Z" fill="#d8d8d8"/><path d="m74.92,97.22c0,.8.64,1.44,1.44,1.44s1.44-.64,1.44-1.44-.64-1.44-1.44-1.44-1.44.64-1.44,1.44Z" fill="#d8d8d8"/></g></g><g><g><path d="m37.62,60.43c0,.8-.64,1.44-1.44,1.44s-1.44-.64-1.44-1.44.64-1.44,1.44-1.44,1.44.64,1.44,1.44Z" fill="#d8d8d8"/><path d="m38.35,73.04c0,.8-.64,1.44-1.44,1.44s-1.44-.64-1.44-1.44.64-1.44,1.44-1.44,1.44.64,1.44,1.44Z" fill="#d8d8d8"/><path d="m38.77,85.66c0,.8-.64,1.44-1.44,1.44s-1.44-.64-1.44-1.44.64-1.44,1.44-1.44,1.44.64,1.44,1.44Z" fill="#d8d8d8"/><path d="m39.12,98.27c0,.8-.64,1.44-1.44,1.44s-1.44-.64-1.44-1.44.64-1.44,1.44-1.44,1.44.65,1.44,1.44Z" fill="#d8d8d8"/></g><g><path d="m58.19,55.56c0,.8-.64,1.44-1.44,1.44s-1.44-.64-1.44-1.44.64-1.44,1.44-1.44,1.44.65,1.44,1.44Z" fill="#d8d8d8"/><path d="m58.92,69.45c0,.8-.64,1.44-1.44,1.44s-1.44-.64-1.44-1.44.64-1.44,1.44-1.44,1.44.64,1.44,1.44Z" fill="#d8d8d8"/><path d="m58.97,83.34c0,.8-.64,1.44-1.44,1.44s-1.44-.64-1.44-1.44.64-1.44,1.44-1.44,1.44.64,1.44,1.44Z" fill="#d8d8d8"/><path d="m59.34,97.22c0,.8-.64,1.44-1.44,1.44s-1.44-.64-1.44-1.44.64-1.44,1.44-1.44,1.44.64,1.44,1.44Z" fill="#d8d8d8"/></g></g></g></g></g></g></svg>